{"asset":{"version":"2.0","generator":"babylon.js glTF exporter for 3dsmax 2017 v20200423.3"},"extensionsUsed":["KHR_texture_transform","KHR_materials_unlit"],"extensionsRequired":["KHR_texture_transform"],"scene":0,"scenes":[{"nodes":[0,1]}],"nodes":[{"mesh":0,"name":"Cylinder001"},{"name":"Default light"}],"meshes":[{"primitives":[{"attributes":{"POSITION":1,"NORMAL":2,"TEXCOORD_0":3},"indices":0,"material":0}],"name":"Cylinder001"}],"accessors":[{"bufferView":0,"componentType":5123,"count":1260,"type":"SCALAR","name":"accessorIndices"},{"bufferView":1,"componentType":5126,"count":306,"max":[0.026664434,0.00241807662,0.0266375858],"min":[-0.02655709,0.0,-0.0266375858],"type":"VEC3","name":"accessorPositions"},{"bufferView":1,"byteOffset":3672,"componentType":5126,"count":306,"type":"VEC3","name":"accessorNormals"},{"bufferView":2,"componentType":5126,"count":306,"type":"VEC2","name":"accessorUVs"}],"bufferViews":[{"buffer":0,"byteLength":2520,"name":"bufferViewScalar"},{"buffer":0,"byteOffset":2520,"byteLength":7344,"byteStride":12,"name":"bufferViewFloatVec3"},{"buffer":0,"byteOffset":9864,"byteLength":2448,"byteStride":8,"name":"bufferViewFloatVec2"}],"buffers":[{"uri":"Disc.bin","byteLength":12312}],"materials":[{"pbrMetallicRoughness":{"baseColorTexture":{"index":0,"extensions":{"KHR_texture_transform":{"offset":[0.0,0.0],"scale":[1.0,1.0],"texCoord":0}}},"metallicFactor":0.0,"roughnessFactor":0.450053632},"emissiveTexture":{"index":0,"extensions":{"KHR_texture_transform":{"offset":[0.0,0.0],"scale":[1.0,1.0],"texCoord":0}}},"emissiveFactor":[1.0,1.0,1.0],"name":"Material #25","extensions":{"KHR_materials_unlit":{}}}],"textures":[{"sampler":0,"source":0,"name":"silver_maple_galliano.png"}],"images":[{"uri":"./silver_maple_galliano.png"}],"samplers":[{"magFilter":9729,"minFilter":9987}]}